<svg width="123" height="25" viewBox="0 0 123 25" fill="none" xmlns="http://www.w3.org/2000/svg">
<rect width="123" height="25" rx="4" fill="#E39AB2"/>
<path d="M8.98 6.2V16H12.83C14.174 16 15.294 15.524 16.176 14.586C17.072 13.634 17.52 12.472 17.52 11.1C17.52 9.714 17.072 8.552 16.176 7.614C15.294 6.676 14.174 6.2 12.83 6.2H8.98ZM10.59 14.46V7.74H12.83C13.754 7.74 14.51 8.062 15.084 8.692C15.672 9.322 15.966 10.12 15.966 11.1C15.966 12.066 15.672 12.878 15.084 13.508C14.51 14.138 13.754 14.46 12.83 14.46H10.59ZM23.8298 12.752C23.8298 14.11 23.1158 14.768 22.0518 14.768C21.0858 14.768 20.4838 14.194 20.4838 13.144V9H18.9718V13.298C18.9718 15.09 20.0498 16.182 21.6598 16.182C22.6538 16.182 23.3678 15.818 23.8298 15.104V16H25.3418V9H23.8298V12.752ZM34.0119 13.144C34.0539 12.878 34.0679 12.668 34.0679 12.514C34.0679 11.492 33.7319 10.61 33.0739 9.896C32.4159 9.182 31.5759 8.818 30.5539 8.818C29.4759 8.818 28.5799 9.168 27.8939 9.882C27.2079 10.582 26.8579 11.45 26.8579 12.5C26.8579 13.564 27.2079 14.446 27.9079 15.146C28.6079 15.832 29.5319 16.182 30.6659 16.182C32.0239 16.182 33.0459 15.678 33.7319 14.656L32.4859 13.928C32.0799 14.502 31.4779 14.796 30.6799 14.796C29.5179 14.796 28.6639 14.208 28.4399 13.144H34.0119ZM28.4259 11.912C28.6359 10.848 29.4199 10.19 30.5399 10.19C31.5339 10.19 32.3319 10.778 32.5419 11.912H28.4259ZM40.6063 7.67C40.9983 7.278 40.9983 6.69 40.6203 6.312C40.2423 5.92 39.6263 5.92 39.2483 6.312C38.8703 6.69 38.8703 7.278 39.2483 7.67C39.6403 8.048 40.2283 8.048 40.6063 7.67ZM40.6903 16V9H39.1783V16H40.6903ZM46.2679 8.818C45.2739 8.818 44.5599 9.182 44.0979 9.896V9H42.5859V16H44.0979V12.248C44.0979 10.89 44.8119 10.232 45.8759 10.232C46.8419 10.232 47.4439 10.806 47.4439 11.856V16H48.9559V11.702C48.9559 9.91 47.8779 8.818 46.2679 8.818ZM60.146 7.572V6.2H54.126V7.712H58.228L56.114 10.498L56.758 11.464H57.122C58.242 11.464 58.942 12.066 58.942 13.032C58.942 13.998 58.242 14.614 57.122 14.614C56.128 14.614 55.498 14.194 55.204 13.354L53.832 14.152C54.35 15.482 55.624 16.182 57.122 16.182C58.088 16.182 58.9 15.902 59.558 15.342C60.216 14.782 60.552 14.012 60.552 13.032C60.552 11.562 59.572 10.54 58.158 10.204L60.146 7.572ZM68.4205 14.796C69.1065 13.872 69.4425 12.64 69.4425 11.1C69.4425 9.56 69.1065 8.328 68.4205 7.404C67.7485 6.48 66.8105 6.018 65.5925 6.018C64.3745 6.018 63.4365 6.48 62.7505 7.404C62.0785 8.328 61.7425 9.56 61.7425 11.1C61.7425 12.64 62.0785 13.872 62.7505 14.796C63.4365 15.72 64.3745 16.182 65.5925 16.182C66.8105 16.182 67.7485 15.72 68.4205 14.796ZM65.5925 14.614C64.1505 14.614 63.3525 13.354 63.3525 11.1C63.3525 8.846 64.1505 7.586 65.5925 7.586C67.0485 7.586 67.8325 8.846 67.8325 11.1C67.8325 13.354 67.0485 14.614 65.5925 14.614ZM80.2069 9.994C79.6329 9.21 78.8209 8.818 77.7569 8.818C76.7909 8.818 75.9789 9.168 75.2929 9.882C74.6069 10.596 74.2709 11.464 74.2709 12.5C74.2709 13.522 74.6069 14.404 75.2929 15.118C75.9789 15.832 76.7909 16.182 77.7569 16.182C78.8209 16.182 79.6329 15.79 80.2069 14.992V16H81.7189V6.2H80.2069V9.994ZM76.4129 14.11C75.9929 13.676 75.7829 13.144 75.7829 12.5C75.7829 11.856 75.9929 11.324 76.4129 10.904C76.8329 10.47 77.3649 10.26 77.9949 10.26C78.6249 10.26 79.1569 10.47 79.5769 10.904C79.9969 11.324 80.2069 11.856 80.2069 12.5C80.2069 13.144 79.9969 13.676 79.5769 14.11C79.1569 14.53 78.6249 14.74 77.9949 14.74C77.3649 14.74 76.8329 14.53 76.4129 14.11ZM89.1652 9.994C88.5912 9.21 87.7792 8.818 86.7152 8.818C85.7492 8.818 84.9372 9.168 84.2512 9.882C83.5652 10.596 83.2292 11.464 83.2292 12.5C83.2292 13.522 83.5652 14.404 84.2512 15.118C84.9372 15.832 85.7492 16.182 86.7152 16.182C87.7792 16.182 88.5912 15.79 89.1652 14.992V16H90.6772V9H89.1652V9.994ZM85.3712 14.11C84.9512 13.676 84.7412 13.144 84.7412 12.5C84.7412 11.856 84.9512 11.324 85.3712 10.904C85.7912 10.47 86.3232 10.26 86.9532 10.26C87.5832 10.26 88.1152 10.47 88.5352 10.904C88.9552 11.324 89.1652 11.856 89.1652 12.5C89.1652 13.144 88.9552 13.676 88.5352 14.11C88.1152 14.53 87.5832 14.74 86.9532 14.74C86.3232 14.74 85.7912 14.53 85.3712 14.11ZM95.5056 14.082L93.4196 9H91.7676L94.7356 15.874L94.6656 16.014C94.2876 16.98 93.7556 17.442 92.8036 17.386V18.8C94.4136 18.898 95.5476 18.03 96.2196 16.224L98.9076 9H97.2976L95.5056 14.082ZM102.933 17.4C100.875 13.298 100.875 8.902 102.933 4.8H101.421C99.363 8.902 99.363 13.298 101.421 17.4H102.933ZM105.593 10.932C105.593 10.442 106.041 10.19 106.615 10.19C107.245 10.19 107.693 10.456 107.931 10.988L109.205 10.274C108.715 9.364 107.777 8.818 106.615 8.818C105.887 8.818 105.271 9.014 104.781 9.406C104.291 9.798 104.053 10.316 104.053 10.96C104.025 12.43 105.439 12.85 106.489 13.116C107.231 13.298 107.819 13.564 107.819 14.012C107.819 14.53 107.427 14.796 106.629 14.796C105.831 14.796 105.313 14.46 105.075 13.788L103.773 14.544C104.221 15.566 105.243 16.182 106.629 16.182C107.413 16.182 108.057 15.986 108.575 15.608C109.093 15.23 109.359 14.698 109.359 14.026C109.387 12.528 107.987 12.08 106.909 11.842C106.181 11.632 105.593 11.394 105.593 10.932ZM111.738 17.4C113.796 13.298 113.796 8.902 111.738 4.8H110.226C112.284 8.902 112.284 13.298 110.226 17.4H111.738Z" fill="#201F24"/>
</svg>
